<svg width="364" height="114" viewBox="0 0 364 114" fill="none" xmlns="http://www.w3.org/2000/svg">
<path d="M158.062 30.4414C167.086 28.1855 176.388 26.4717 185.968 25.2998L187.77 35.7588L168.785 37.8242L169.312 51.8428L185.44 51.1396L185.001 61.5986L169.488 61.1152L168.785 83L159.337 83.791L158.062 30.4414ZM197.481 27.6289L208.556 25.8711V49.9531L207.193 71.3984C209.449 72.2773 212.496 72.9805 216.334 73.5078C220.172 74.0059 222.486 74.3135 223.277 74.4307L220.772 84.1865C217.638 83.7764 215.104 83.3955 213.17 83.0439L208.028 82.0771C202.726 81.0518 199.21 80.1289 197.481 79.3086V27.6289ZM235.626 80.1875C234.425 79.748 233.678 79.4258 233.385 79.2207C233.092 78.9863 232.828 78.6934 232.594 78.3418C231.275 76.3496 230.323 70.4316 229.737 60.5879C229.591 58.3906 229.518 56.2373 229.518 54.1279C229.518 52.0186 229.562 50.0703 229.649 48.2832C229.737 46.4668 229.854 44.7529 230.001 43.1416C230.323 39.5088 230.616 37.3262 230.88 36.5938L231.407 34.9238C231.876 33.5176 232.945 32.4775 234.615 31.8037C235.348 31.5107 236.3 31.1738 237.472 30.793L241.339 29.4746C242.774 29.0352 244.269 28.5957 245.821 28.1562L250.304 26.8379C253.321 25.9883 255.87 25.3438 257.95 24.9043L260.323 35.583C259.591 35.7588 258.697 35.9492 257.643 36.1543L246.92 38.1758L243.888 38.791C243.009 38.9961 242.35 39.1572 241.91 39.2744C241.09 42.5557 240.68 47.3164 240.68 53.5566C240.68 61.7012 241.178 67.707 242.174 71.5742C243.404 71.8672 244.737 72.1602 246.173 72.4531L255.226 74.2988L259.488 75.0898L257.027 85.2412C254.391 84.7725 251.988 84.2744 249.82 83.7471C241.588 81.7842 236.856 80.5977 235.626 80.1875ZM270.255 42.043L280.934 40.2412V49.0742L280.67 59.709L293.282 56.6328C295.069 50.9785 295.963 45.8516 295.963 41.252C295.963 40.2852 295.904 39.377 295.787 38.5273C290.836 36.9746 281.065 35.9053 266.476 35.3193L268.146 24.9482C280.655 25.4463 291.495 26.6475 300.665 28.5518C301.456 28.7275 302.716 29.8848 304.444 32.0234C306.144 34.1328 307.022 35.6123 307.081 36.4619C307.169 37.3115 307.213 38.1465 307.213 38.9668V41.4277C307.213 45.2363 306.246 50.1582 304.312 56.1934C303.258 59.4746 302.218 61.584 301.192 62.5215C300.724 62.9609 300.299 63.2832 299.918 63.4883L295.611 64.8945C299.889 69.5527 303.844 74.665 307.477 80.2314L298.336 86.4277L287.35 67.0918L280.934 67.4434L280.582 83L271.046 83.791L270.255 42.043ZM329.493 73.8154L330.416 73.7275C331.383 73.5811 332.364 73.4492 333.36 73.332C334.386 73.1855 335.44 73.0098 336.524 72.8047C339.132 72.3652 341.197 71.8965 342.721 71.3984C344.654 63.4004 345.621 55.0215 345.621 46.2617C345.621 42.9805 345.46 40.1387 345.138 37.7363C337.169 36.2422 327.062 35.4951 314.815 35.4951H313.629L315.606 24.8604H316.529C327.662 24.8604 337.345 25.7539 345.577 27.541C347.159 27.8633 348.331 28.1709 349.093 28.4639C349.884 28.7568 350.66 29.2549 351.422 29.958C352.184 30.6611 352.931 31.4375 353.663 32.2871C355.362 34.3672 356.271 35.9492 356.388 37.0332C356.622 39.2012 356.739 41.6328 356.739 44.3281C356.739 47.0234 356.622 49.8652 356.388 52.8535C356.153 55.8418 355.802 58.7861 355.333 61.6865C354.366 67.9854 353.062 73.1416 351.422 77.1553C351.07 78.0635 350.675 78.7227 350.235 79.1328C349.825 79.5137 348.976 79.9238 347.687 80.3633C346.397 80.7734 344.801 81.1689 342.896 81.5498C341.021 81.9307 338.927 82.2529 336.612 82.5166C332.306 83.0146 326.563 83.4395 319.386 83.791V41.6914L330.196 39.3623L330.372 48.8105L329.493 73.8154Z" fill="#363636"/>
<path d="M158.062 30.4414L157.82 29.4713L157.044 29.6653L157.063 30.4653L158.062 30.4414ZM185.968 25.2998L186.953 25.13L186.792 24.1916L185.846 24.3072L185.968 25.2998ZM187.77 35.7588L187.878 36.7529L188.936 36.6378L188.755 35.589L187.77 35.7588ZM168.785 37.8242L168.677 36.8301L167.751 36.9308L167.786 37.8618L168.785 37.8242ZM169.312 51.8428L168.313 51.8804L168.351 52.8856L169.356 52.8418L169.312 51.8428ZM185.44 51.1396L186.44 51.1816L186.485 50.0931L185.397 50.1406L185.44 51.1396ZM185.001 61.5986L184.97 62.5981L185.959 62.629L186 61.6406L185.001 61.5986ZM169.488 61.1152L169.519 60.1157L168.521 60.0846L168.489 61.0831L169.488 61.1152ZM168.785 83L168.869 83.9965L169.756 83.9222L169.785 83.0321L168.785 83ZM159.337 83.791L158.337 83.8149L158.363 84.8761L159.42 84.7875L159.337 83.791ZM158.305 31.4115C167.287 29.166 176.548 27.4595 186.089 26.2924L185.846 24.3072C176.227 25.4839 166.885 27.2051 157.82 29.4713L158.305 31.4115ZM184.982 25.4696L186.784 35.9286L188.755 35.589L186.953 25.13L184.982 25.4696ZM187.661 34.7647L168.677 36.8301L168.893 38.8184L187.878 36.7529L187.661 34.7647ZM167.786 37.8618L168.313 51.8804L170.312 51.8052L169.784 37.7866L167.786 37.8618ZM169.356 52.8418L185.484 52.1387L185.397 50.1406L169.269 50.8437L169.356 52.8418ZM184.441 51.0977L184.002 61.5567L186 61.6406L186.44 51.1816L184.441 51.0977ZM185.032 60.5991L169.519 60.1157L169.457 62.1147L184.97 62.5981L185.032 60.5991ZM168.489 61.0831L167.786 82.9679L169.785 83.0321L170.488 61.1473L168.489 61.0831ZM168.702 82.0035L159.253 82.7945L159.42 84.7875L168.869 83.9965L168.702 82.0035ZM160.337 83.7671L159.062 30.4175L157.063 30.4653L158.337 83.8149L160.337 83.7671ZM197.481 27.6289L197.325 26.6413L196.481 26.7751V27.6289H197.481ZM208.556 25.8711H209.556V24.6998L208.399 24.8835L208.556 25.8711ZM208.556 49.9531L209.554 50.0165L209.556 49.9849V49.9531H208.556ZM207.193 71.3984L206.195 71.335L206.149 72.0648L206.83 72.3302L207.193 71.3984ZM216.334 73.5078L216.198 74.4985L216.205 74.4995L216.334 73.5078ZM223.277 74.4307L224.246 74.6794L224.522 73.6041L223.424 73.4415L223.277 74.4307ZM220.772 84.1865L220.643 85.1781L221.521 85.293L221.741 84.4352L220.772 84.1865ZM213.17 83.0439L212.985 84.0267L212.991 84.0278L213.17 83.0439ZM208.028 82.0771L207.838 83.059L207.844 83.0599L208.028 82.0771ZM197.481 79.3086H196.481V79.9409L197.053 80.212L197.481 79.3086ZM197.638 28.6165L208.712 26.8587L208.399 24.8835L197.325 26.6413L197.638 28.6165ZM207.556 25.8711V49.9531H209.556V25.8711H207.556ZM207.558 49.8897L206.195 71.335L208.191 71.4618L209.554 50.0165L207.558 49.8897ZM206.83 72.3302C209.189 73.2493 212.323 73.966 216.198 74.4985L216.47 72.5171C212.67 71.9949 209.709 71.3054 207.556 70.4667L206.83 72.3302ZM216.205 74.4995C220.048 74.9981 222.351 75.3043 223.131 75.4199L223.424 73.4415C222.622 73.3226 220.296 73.0136 216.463 72.5161L216.205 74.4995ZM222.309 74.182L219.804 83.9378L221.741 84.4352L224.246 74.6794L222.309 74.182ZM220.902 83.195C217.775 82.7859 215.259 82.4074 213.349 82.0601L212.991 84.0278C214.948 84.3836 217.5 84.7669 220.643 85.1781L220.902 83.195ZM213.355 82.0612L208.213 81.0944L207.844 83.0599L212.985 84.0267L213.355 82.0612ZM208.218 81.0953C202.9 80.0669 199.507 79.1629 197.91 78.4052L197.053 80.212C198.913 81.0949 202.552 82.0367 207.838 83.059L208.218 81.0953ZM198.481 79.3086V27.6289H196.481V79.3086H198.481ZM235.626 80.1875L235.282 81.1266L235.296 81.1316L235.31 81.1362L235.626 80.1875ZM233.385 79.2207L232.76 80.0016L232.785 80.0216L232.811 80.0399L233.385 79.2207ZM232.594 78.3418L231.76 78.8937L231.762 78.8965L232.594 78.3418ZM229.737 60.5879L230.736 60.5285L230.735 60.5214L229.737 60.5879ZM229.649 48.2832L230.648 48.3323L230.648 48.3315L229.649 48.2832ZM230.001 43.1416L230.997 43.2321L230.997 43.23L230.001 43.1416ZM230.88 36.5938L231.821 36.9325L231.827 36.9138L231.833 36.8949L230.88 36.5938ZM231.407 34.9238L230.459 34.6076L230.456 34.6151L230.454 34.6227L231.407 34.9238ZM234.615 31.8037L234.244 30.8752L234.241 30.8764L234.615 31.8037ZM237.472 30.793L237.781 31.744L237.788 31.7418L237.794 31.7395L237.472 30.793ZM241.339 29.4746L241.046 28.5184L241.031 28.523L241.016 28.5281L241.339 29.4746ZM245.821 28.1562L246.094 29.1185L246.103 29.1156L245.821 28.1562ZM250.304 26.8379L250.033 25.8753L250.022 25.8785L250.304 26.8379ZM257.95 24.9043L258.926 24.6874L258.712 23.7213L257.743 23.9259L257.95 24.9043ZM260.323 35.583L260.557 36.5554L261.513 36.3259L261.299 35.3661L260.323 35.583ZM257.643 36.1543L257.828 37.137L257.833 37.1359L257.643 36.1543ZM246.92 38.1758L246.735 37.193L246.721 37.1958L246.92 38.1758ZM243.888 38.791L243.689 37.811L243.675 37.8139L243.66 37.8172L243.888 38.791ZM241.91 39.2744L241.652 38.3082L241.083 38.4601L240.94 39.0319L241.91 39.2744ZM242.174 71.5742L241.205 71.8237L241.356 72.4074L241.942 72.547L242.174 71.5742ZM246.173 72.4531L245.973 73.4329L245.973 73.433L246.173 72.4531ZM255.226 74.2988L255.026 75.2787L255.034 75.2804L255.043 75.282L255.226 74.2988ZM259.488 75.0898L260.46 75.3254L260.709 74.2993L259.671 74.1066L259.488 75.0898ZM257.027 85.2412L256.852 86.2258L257.778 86.3903L257.999 85.4768L257.027 85.2412ZM249.82 83.7471L250.057 82.7754L250.052 82.7743L249.82 83.7471ZM235.97 79.2484C235.378 79.0319 234.91 78.8487 234.561 78.698C234.191 78.5386 234.014 78.4405 233.958 78.4015L232.811 80.0399C233.049 80.206 233.391 80.3716 233.769 80.5344C234.166 80.706 234.673 80.9036 235.282 81.1266L235.97 79.2484ZM234.009 78.4398C233.806 78.2773 233.61 78.0637 233.426 77.7871L231.762 78.8965C232.046 79.323 232.377 79.6954 232.76 80.0016L234.009 78.4398ZM233.428 77.7899C233.181 77.4166 232.908 76.7864 232.635 75.8357C232.366 74.8984 232.112 73.7064 231.878 72.2503C231.41 69.3384 231.028 65.4353 230.736 60.5285L228.739 60.6473C229.033 65.5842 229.42 69.562 229.904 72.568C230.145 74.0709 230.414 75.3472 230.712 76.3875C231.007 77.4143 231.348 78.2709 231.76 78.8937L233.428 77.7899ZM230.735 60.5214C230.59 58.3453 230.518 56.2142 230.518 54.1279H228.518C228.518 56.2604 228.592 58.436 228.74 60.6544L230.735 60.5214ZM230.518 54.1279C230.518 52.0321 230.561 50.1005 230.648 48.3323L228.651 48.2341C228.562 50.0401 228.518 52.005 228.518 54.1279H230.518ZM230.648 48.3315C230.736 46.5275 230.852 44.8278 230.997 43.2321L229.005 43.0511C228.857 44.678 228.739 46.4061 228.651 48.2349L230.648 48.3315ZM230.997 43.23C231.158 41.4202 231.31 39.9831 231.454 38.9131C231.602 37.8083 231.73 37.1833 231.821 36.9325L229.939 36.255C229.766 36.7366 229.616 37.5691 229.471 38.647C229.322 39.7596 229.167 41.2302 229.005 43.0532L230.997 43.23ZM231.833 36.8949L232.361 35.225L230.454 34.6227L229.926 36.2926L231.833 36.8949ZM232.356 35.2401C232.712 34.1712 233.527 33.321 234.989 32.7311L234.241 30.8764C232.363 31.6341 231.04 32.8639 230.459 34.6076L232.356 35.2401ZM234.987 32.7322C235.691 32.4506 236.62 32.1214 237.781 31.744L237.163 29.8419C235.98 30.2263 235.005 30.5709 234.244 30.8752L234.987 32.7322ZM237.794 31.7395L241.662 30.4211L241.016 28.5281L237.149 29.8465L237.794 31.7395ZM241.632 30.4308C243.06 29.9936 244.547 29.5561 246.094 29.1185L245.549 27.194C243.99 27.6353 242.489 28.0767 241.046 28.5184L241.632 30.4308ZM246.103 29.1156L250.586 27.7973L250.022 25.8785L245.539 27.1969L246.103 29.1156ZM250.575 27.8005C253.58 26.9543 256.106 26.316 258.157 25.8827L257.743 23.9259C255.634 24.3715 253.063 25.0222 250.033 25.8753L250.575 27.8005ZM256.974 25.1212L259.347 35.7999L261.299 35.3661L258.926 24.6874L256.974 25.1212ZM260.09 34.6106C259.376 34.7819 258.498 34.9693 257.452 35.1727L257.833 37.1359C258.897 36.9291 259.806 36.7356 260.557 36.5554L260.09 34.6106ZM257.457 35.1716L246.735 37.1931L247.105 39.1585L257.828 37.137L257.457 35.1716ZM246.721 37.1958L243.689 37.811L244.087 39.771L247.119 39.1558L246.721 37.1958ZM243.66 37.8172C242.779 38.0228 242.108 38.1868 241.652 38.3082L242.168 40.2407C242.592 40.1276 243.238 39.9694 244.115 39.7649L243.66 37.8172ZM240.94 39.0319C240.09 42.433 239.68 47.291 239.68 53.5566H241.68C241.68 47.3418 242.09 42.6783 242.88 39.5169L240.94 39.0319ZM239.68 53.5566C239.68 61.7172 240.176 67.8283 241.205 71.8237L243.142 71.3248C242.179 67.5858 241.68 61.6852 241.68 53.5566H239.68ZM241.942 72.547C243.185 72.8428 244.528 73.1381 245.973 73.4329L246.373 71.4733C244.946 71.1822 243.624 70.8915 242.405 70.6014L241.942 72.547ZM245.973 73.433L255.026 75.2787L255.425 73.319L246.373 71.4733L245.973 73.433ZM255.043 75.282L259.306 76.0731L259.671 74.1066L255.408 73.3156L255.043 75.282ZM258.516 74.8542L256.055 85.0056L257.999 85.4768L260.46 75.3254L258.516 74.8542ZM257.202 84.2566C254.582 83.7909 252.201 83.297 250.057 82.7754L249.584 84.7187C251.776 85.2519 254.199 85.7541 256.852 86.2258L257.202 84.2566ZM250.052 82.7743C241.791 80.8046 237.119 79.6311 235.942 79.2388L235.31 81.1362C236.594 81.5642 241.385 82.7638 249.588 84.7198L250.052 82.7743ZM270.255 42.043L270.089 41.0569L269.239 41.2003L269.255 42.0619L270.255 42.043ZM280.934 40.2412H281.934V39.0584L280.767 39.2551L280.934 40.2412ZM280.934 49.0742L281.933 49.099L281.934 49.0866V49.0742H280.934ZM280.67 59.709L279.67 59.6842L279.638 60.99L280.907 60.6805L280.67 59.709ZM293.282 56.6328L293.519 57.6043L294.066 57.4709L294.236 56.9342L293.282 56.6328ZM295.787 38.5273L296.778 38.3907L296.691 37.7628L296.086 37.5732L295.787 38.5273ZM266.476 35.3193L265.488 35.1604L265.309 36.2733L266.435 36.3185L266.476 35.3193ZM268.146 24.9482L268.185 23.949L267.299 23.9138L267.158 24.7893L268.146 24.9482ZM300.665 28.5518L300.882 27.5755L300.868 27.5726L300.665 28.5518ZM304.444 32.0234L305.223 31.3961L305.222 31.3949L304.444 32.0234ZM307.081 36.4619L306.083 36.5307L306.085 36.5478L306.086 36.5648L307.081 36.4619ZM304.312 56.1934L305.265 56.4994L305.265 56.4985L304.312 56.1934ZM301.192 62.5215L300.518 61.7834L300.508 61.7919L301.192 62.5215ZM299.918 63.4883L300.228 64.4389L300.313 64.4111L300.392 64.3688L299.918 63.4883ZM295.611 64.8945L295.301 63.9439L293.824 64.4263L294.875 65.5709L295.611 64.8945ZM307.477 80.2314L308.038 81.0592L308.851 80.5078L308.314 79.6849L307.477 80.2314ZM298.336 86.4277L297.466 86.9217L298.001 87.8628L298.897 87.2555L298.336 86.4277ZM287.35 67.0918L288.219 66.5978L287.913 66.0594L287.295 66.0933L287.35 67.0918ZM280.934 67.4434L280.879 66.4449L279.955 66.4955L279.934 67.4208L280.934 67.4434ZM280.582 83L280.665 83.9966L281.561 83.9222L281.582 83.0226L280.582 83ZM271.046 83.791L270.046 83.81L270.066 84.8757L271.129 84.7876L271.046 83.791ZM270.421 43.029L281.1 41.2273L280.767 39.2551L270.089 41.0569L270.421 43.029ZM279.934 40.2412V49.0742H281.934V40.2412H279.934ZM279.934 49.0494L279.67 59.6842L281.67 59.7338L281.933 49.099L279.934 49.0494ZM280.907 60.6805L293.519 57.6043L293.045 55.6613L280.433 58.7375L280.907 60.6805ZM294.236 56.9342C296.045 51.209 296.963 45.9784 296.963 41.252H294.963C294.963 45.7247 294.093 50.748 292.329 56.3314L294.236 56.9342ZM296.963 41.252C296.963 40.2451 296.902 39.2909 296.778 38.3907L294.796 38.664C294.907 39.463 294.963 40.3252 294.963 41.252H296.963ZM296.086 37.5732C290.99 35.9748 281.089 34.9054 266.516 34.3201L266.435 36.3185C281.042 36.9051 290.682 37.9745 295.488 39.4815L296.086 37.5732ZM267.463 35.4783L269.133 25.1072L267.158 24.7893L265.488 35.1604L267.463 35.4783ZM268.106 25.9475C280.578 26.444 291.36 27.6408 300.462 29.5309L300.868 27.5726C291.63 25.6542 280.733 24.4486 268.185 23.949L268.106 25.9475ZM300.448 29.5279C300.566 29.5542 300.912 29.7233 301.527 30.288C302.105 30.8194 302.817 31.601 303.667 32.652L305.222 31.3949C304.343 30.3072 303.561 29.4409 302.88 28.8151C302.235 28.2225 301.555 27.7251 300.882 27.5756L300.448 29.5279ZM303.666 32.6508C304.5 33.6869 305.113 34.543 305.518 35.2258C305.943 35.9414 306.071 36.3531 306.083 36.5307L308.079 36.3931C308.032 35.7211 307.691 34.9682 307.238 34.2044C306.764 33.4077 306.088 32.4693 305.223 31.3961L303.666 32.6508ZM306.086 36.5648C306.171 37.3816 306.213 38.1822 306.213 38.9668H308.213C308.213 38.1107 308.167 37.2414 308.076 36.359L306.086 36.5648ZM306.213 38.9668V41.4277H308.213V38.9668H306.213ZM306.213 41.4277C306.213 45.0868 305.28 49.8955 303.36 55.8882L305.265 56.4985C307.212 50.4209 308.213 45.3859 308.213 41.4277H306.213ZM303.36 55.8874C302.842 57.5007 302.335 58.7985 301.845 59.7941C301.347 60.8036 300.896 61.4372 300.518 61.7835L301.867 63.2595C302.514 62.6683 303.096 61.7784 303.638 60.6786C304.188 59.5648 304.728 58.1673 305.265 56.4994L303.36 55.8874ZM300.508 61.7919C300.075 62.1979 299.721 62.4584 299.444 62.6078L300.392 64.3688C300.876 64.108 301.372 63.724 301.876 63.251L300.508 61.7919ZM299.608 62.5377L295.301 63.9439L295.922 65.8451L300.228 64.4389L299.608 62.5377ZM294.875 65.5709C299.113 70.1867 303.035 75.2552 306.639 80.778L308.314 79.6849C304.653 74.0749 300.664 68.9188 296.348 64.2182L294.875 65.5709ZM306.915 79.4037L297.775 85.6L298.897 87.2555L308.038 81.0592L306.915 79.4037ZM299.205 85.9337L288.219 66.5978L286.48 67.5858L297.466 86.9217L299.205 85.9337ZM287.295 66.0933L280.879 66.4449L280.988 68.4419L287.404 68.0903L287.295 66.0933ZM279.934 67.4208L279.582 82.9774L281.582 83.0226L281.933 67.466L279.934 67.4208ZM280.499 82.0034L270.963 82.7944L271.129 84.7876L280.665 83.9966L280.499 82.0034ZM272.046 83.7721L271.255 42.024L269.255 42.0619L270.046 83.81L272.046 83.7721ZM329.493 73.8154L328.494 73.7803L328.454 74.9189L329.588 74.8109L329.493 73.8154ZM330.416 73.7275L330.511 74.723L330.538 74.7204L330.566 74.7163L330.416 73.7275ZM333.36 73.332L333.477 74.3252L333.49 74.3237L333.502 74.322L333.36 73.332ZM336.524 72.8047L336.358 71.8186L336.348 71.8203L336.339 71.8221L336.524 72.8047ZM342.721 71.3984L343.031 72.3489L343.562 72.1756L343.693 71.6334L342.721 71.3984ZM345.138 37.7363L346.129 37.6034L346.033 36.8867L345.322 36.7535L345.138 37.7363ZM313.629 35.4951L312.646 35.3123L312.426 36.4951H313.629V35.4951ZM315.606 24.8604V23.8604H314.775L314.623 24.6775L315.606 24.8604ZM345.577 27.541L345.365 28.5183L345.378 28.5209L345.577 27.541ZM349.093 28.4639L348.734 29.3973L348.745 29.4016L349.093 28.4639ZM353.663 32.2871L354.438 31.6545L354.429 31.6442L354.421 31.6342L353.663 32.2871ZM355.333 61.6865L354.346 61.527L354.345 61.5348L355.333 61.6865ZM351.422 77.1553L350.496 76.7769L350.493 76.7856L350.489 76.7943L351.422 77.1553ZM350.235 79.1328L350.916 79.8656L350.918 79.8639L350.235 79.1328ZM347.687 80.3633L347.99 81.3162L347.999 81.3131L348.009 81.3098L347.687 80.3633ZM342.896 81.5498L342.7 80.5692L342.697 80.5698L342.896 81.5498ZM336.612 82.5166L336.499 81.523L336.497 81.5232L336.612 82.5166ZM319.386 83.791H318.386V84.8412L319.435 84.7898L319.386 83.791ZM319.386 41.6914L319.175 40.7138L318.386 40.8839V41.6914H319.386ZM330.196 39.3623L331.196 39.3437L331.174 38.1288L329.986 38.3847L330.196 39.3623ZM330.372 48.8105L331.371 48.8457L331.372 48.8188L331.372 48.7919L330.372 48.8105ZM329.588 74.8109L330.511 74.723L330.321 72.732L329.398 72.8199L329.588 74.8109ZM330.566 74.7163C331.521 74.5715 332.492 74.4411 333.477 74.3252L333.244 72.3389C332.237 72.4573 331.244 72.5906 330.266 72.7388L330.566 74.7163ZM333.502 74.322C334.543 74.1732 335.613 73.9949 336.71 73.7873L336.339 71.8221C335.268 72.0246 334.229 72.1979 333.219 72.3421L333.502 74.322ZM336.691 73.7908C339.32 73.3476 341.44 72.8691 343.031 72.3489L342.41 70.4479C340.954 70.9239 338.944 71.3828 336.358 71.8186L336.691 73.7908ZM343.693 71.6334C345.646 63.5536 346.621 55.0956 346.621 46.2617H344.621C344.621 54.9474 343.663 63.2471 341.749 71.1635L343.693 71.6334ZM346.621 46.2617C346.621 42.9504 346.459 40.0621 346.129 37.6034L344.147 37.8693C344.461 40.2153 344.621 43.0105 344.621 46.2617H346.621ZM345.322 36.7535C337.27 35.2437 327.095 34.4951 314.815 34.4951V36.4951C327.028 36.4951 337.068 37.2406 344.953 38.7192L345.322 36.7535ZM314.815 34.4951H313.629V36.4951H314.815V34.4951ZM314.612 35.6779L316.59 25.0432L314.623 24.6775L312.646 35.3123L314.612 35.6779ZM315.606 25.8604H316.529V23.8604H315.606V25.8604ZM316.529 25.8604C327.612 25.8604 337.22 26.7502 345.365 28.5183L345.789 26.5638C337.469 24.7576 327.712 23.8604 316.529 23.8604V25.8604ZM345.378 28.5209C346.947 28.8406 348.052 29.1351 348.734 29.3972L349.452 27.5305C348.61 27.2067 347.371 26.886 345.777 26.5611L345.378 28.5209ZM348.745 29.4016C349.389 29.6401 350.057 30.0586 350.744 30.6928L352.1 29.2232C351.264 28.4512 350.378 27.8736 349.44 27.5261L348.745 29.4016ZM350.744 30.6928C351.475 31.3682 352.196 32.1169 352.906 32.94L354.421 31.6342C353.665 30.7581 352.892 29.9541 352.1 29.2232L350.744 30.6928ZM352.889 32.9198C353.718 33.9353 354.334 34.8044 354.751 35.5316C355.177 36.2728 355.357 36.7986 355.393 37.1407L357.382 36.9257C357.302 36.1838 356.969 35.3766 356.486 34.5358C355.995 33.681 355.307 32.719 354.438 31.6545L352.889 32.9198ZM355.393 37.1407C355.623 39.2658 355.739 41.6607 355.739 44.3281H357.739C357.739 41.6049 357.621 39.1365 357.382 36.9257L355.393 37.1407ZM355.739 44.3281C355.739 46.9946 355.623 49.8102 355.391 52.7753L357.385 52.9317C357.621 49.9202 357.739 47.0522 357.739 44.3281H355.739ZM355.391 52.7753C355.158 55.7369 354.81 58.6541 354.346 61.527L356.32 61.8461C356.793 58.9182 357.148 55.9467 357.385 52.9317L355.391 52.7753ZM354.345 61.5348C353.385 67.7886 352.097 72.8614 350.496 76.7769L352.348 77.5336C354.028 73.4218 355.348 68.1821 356.321 61.8382L354.345 61.5348ZM350.489 76.7943C350.162 77.6391 349.834 78.1391 349.553 78.4018L350.918 79.8639C351.515 79.3062 351.978 78.4879 352.354 77.5163L350.489 76.7943ZM349.555 78.4C349.318 78.6202 348.658 78.9756 347.364 79.4168L348.009 81.3098C349.293 80.8721 350.333 80.4071 350.916 79.8656L349.555 78.4ZM347.383 79.4104C346.141 79.8057 344.583 80.1928 342.7 80.5692L343.093 82.5304C345.019 82.1451 346.654 81.7412 347.99 81.3162L347.383 79.4104ZM342.697 80.5698C340.856 80.9438 338.791 81.262 336.499 81.523L336.725 83.5102C339.063 83.2439 341.187 82.9175 343.096 82.5298L342.697 80.5698ZM336.497 81.5232C332.222 82.0176 326.505 82.4411 319.337 82.7922L319.435 84.7898C326.622 84.4378 332.389 84.0117 336.727 83.51L336.497 81.5232ZM320.386 83.791V41.6914H318.386V83.791H320.386ZM319.596 42.669L330.407 40.3399L329.986 38.3847L319.175 40.7138L319.596 42.669ZM329.196 39.3809L329.372 48.8291L331.372 48.7919L331.196 39.3437L329.196 39.3809ZM329.373 48.7754L328.494 73.7803L330.493 73.8506L331.371 48.8457L329.373 48.7754Z" fill="#363636"/>
<rect x="2.66819" y="0.920214" width="101.235" height="63.7904" rx="8" transform="matrix(0.89808 -0.439831 0.436017 0.899939 -0.129287 47.5513)" fill="#D6D6D6" stroke="#656565" stroke-width="4"/>
<rect x="2.42954" y="1.44107" width="101.161" height="63.8379" rx="8" transform="matrix(0.968584 -0.248688 0.246184 0.969223 12.0659 41.8141)" fill="#F1F1F1" stroke="#656565" stroke-width="4"/>
<rect x="29.8742" y="41.0347" width="101.126" height="63.8602" rx="8" fill="white" stroke="#656565" stroke-width="4"/>
<path d="M70.4763 57.625C76.8929 56.0208 83.5075 54.8021 90.32 53.9688L91.6013 61.4062L78.1013 62.875L78.4763 72.8438L89.945 72.3438L89.6325 79.7812L78.6013 79.4375L78.1013 95L71.3825 95.5625L70.4763 57.625Z" fill="#383838"/>
</svg>
